<?xml version="1.0" encoding="UTF-8" standalone="no" ?>
<!DOCTYPE svg PUBLIC "-//W3C//DTD SVG 1.1//EN" "http://www.w3.org/Graphics/SVG/1.1/DTD/svg11.dtd">
<svg xmlns="http://www.w3.org/2000/svg" xmlns:xlink="http://www.w3.org/1999/xlink" version="1.1" width="1080" height="1080" viewBox="0 0 1080 1080" xml:space="preserve">
<desc>Created with Fabric.js 5.2.4</desc>
<defs>
</defs>
<g transform="matrix(1 0 0 1 540 540)" id="615b745f-a708-47ab-9ed5-0961747b957f"  >
<rect style="stroke: none; stroke-width: 1; stroke-dasharray: none; stroke-linecap: butt; stroke-dashoffset: 0; stroke-linejoin: miter; stroke-miterlimit: 4; fill: rgb(255,255,255); fill-rule: nonzero; opacity: 1; visibility: hidden;" vector-effect="non-scaling-stroke"  x="-540" y="-540" rx="0" ry="0" width="1080" height="1080" />
</g>
<g transform="matrix(1 0 0 1 540 540)" id="24d29bf6-a845-4ac5-a9e0-c1f1c2f63985"  >
</g>
<g transform="matrix(1 0 0 0.96 540 528.7)"  >
<g style="" vector-effect="non-scaling-stroke"   >
		<g transform="matrix(0.13 0 0 -0.13 -2.46 -167.47)"  >
<path style="stroke: none; stroke-width: 1; stroke-dasharray: none; stroke-linecap: butt; stroke-dashoffset: 0; stroke-linejoin: miter; stroke-miterlimit: 4; fill: rgb(166,118,1); fill-rule: nonzero; opacity: 1;" vector-effect="non-scaling-stroke"  transform=" translate(-6000.56, -8475)" d="M 5550 9326 C 5469 9145 5432 8677 5488 8540 C 5549 8388 5700 8260 5870 8217 L 5925 8203 L 5928 7995 C 5931 7760 5939 7784 5840 7731 C 5786 7702 5658 7658 5590 7645 C 5551 7637 5520 7614 5520 7593 C 5520 7582 5605 7580 6000 7580 C 6395 7580 6480 7582 6480 7593 C 6480 7617 6447 7637 6390 7649 C 6314 7665 6225 7697 6160 7732 C 6061 7784 6069 7760 6072 7995 L 6075 8203 L 6135 8219 C 6301 8265 6460 8413 6520 8578 C 6541 8637 6543 8651 6537 8803 C 6528 9035 6479 9311 6439 9351 C 6421 9369 6395 9370 5994 9370 L 5569 9370 L 5550 9326 z M 6354 9175 C 6363 9140 6370 9108 6370 9105 C 6370 9102 6240 9100 6080 9100 L 5791 9100 L 5775 9048 C 5725 8881 5716 8613 5759 8532 C 5792 8469 5861 8403 5933 8369 L 5995 8338 L 5945 8343 C 5918 8345 5868 8360 5835 8375 C 5761 8410 5654 8515 5619 8585 C 5597 8631 5595 8647 5596 8765 C 5597 8910 5611 9034 5642 9158 L 5662 9240 L 6000 9240 L 6338 9240 L 6354 9175 z" stroke-linecap="round" />
</g>
		<g transform="matrix(0.13 0 0 -0.13 -160.86 213.49)"  >
<path style="stroke: none; stroke-width: 1; stroke-dasharray: none; stroke-linecap: butt; stroke-dashoffset: 0; stroke-linejoin: miter; stroke-miterlimit: 4; fill: rgb(166,118,1); fill-rule: nonzero; opacity: 1;" vector-effect="non-scaling-stroke"  transform=" translate(-4812.56, -5617.8)" d="M 5060 6157 C 5060 6149 5036 6127 5006 6107 C 4903 6039 4753 5871 4636 5694 C 4591 5626 4586 5622 4531 5607 C 4499 5598 4467 5584 4460 5575 C 4449 5562 4454 5560 4499 5560 L 4551 5560 L 4491 5448 C 4395 5266 4360 5167 4381 5129 C 4390 5111 4478 5063 4484 5072 C 4485 5073 4491 5107 4498 5145 C 4513 5239 4553 5356 4606 5463 L 4650 5550 L 4790 5550 C 4866 5550 4931 5546 4934 5541 C 4938 5536 4936 5499 4930 5458 C 4925 5418 4919 5327 4918 5255 L 4915 5125 L 4960 5103 C 4985 5091 5021 5078 5041 5075 L 5077 5068 L 5083 5257 C 5092 5533 5141 5806 5220 6007 C 5236 6050 5250 6089 5250 6093 C 5250 6103 5136 6155 5093 6165 C 5068 6170 5060 6168 5060 6157 z M 5006 5864 C 4993 5809 4977 5740 4970 5709 L 4959 5653 L 4833 5646 C 4764 5642 4706 5640 4705 5642 C 4699 5647 4786 5771 4847 5844 C 4879 5882 4932 5933 4965 5958 C 5039 6013 5042 6006 5006 5864 z" stroke-linecap="round" />
</g>
		<g transform="matrix(0.13 0 0 -0.13 -16.87 213.32)"  >
<path style="stroke: none; stroke-width: 1; stroke-dasharray: none; stroke-linecap: butt; stroke-dashoffset: 0; stroke-linejoin: miter; stroke-miterlimit: 4; fill: rgb(166,118,1); fill-rule: nonzero; opacity: 1;" vector-effect="non-scaling-stroke"  transform=" translate(-5892.47, -5619.1)" d="M 5780 6164 C 5612 6133 5508 6063 5453 5943 C 5431 5896 5430 5885 5440 5859 C 5454 5826 5507 5777 5520 5785 C 5525 5788 5531 5803 5535 5820 C 5544 5860 5609 5959 5650 5993 C 5683 6021 5760 6065 5760 6055 C 5760 6044 5594 5603 5524 5427 L 5449 5239 L 5469 5207 C 5516 5130 5609 5081 5723 5073 C 5944 5057 6171 5204 6281 5435 C 6333 5542 6351 5617 6351 5727 C 6352 5857 6324 5935 6243 6021 C 6159 6111 6046 6158 5897 6165 C 5846 6167 5794 6167 5780 6164 z M 6040 6084 C 6112 6063 6164 6026 6199 5973 C 6235 5919 6244 5868 6238 5752 C 6226 5534 6097 5334 5906 5239 C 5834 5203 5811 5197 5737 5193 C 5690 5190 5640 5190 5626 5194 C 5601 5200 5600 5204 5606 5238 C 5621 5325 5794 5724 5893 5899 C 5919 5946 5939 5989 5936 5995 C 5934 6001 5901 6021 5864 6040 L 5796 6073 L 5830 6086 C 5879 6104 5977 6103 6040 6084 z" stroke-linecap="round" />
</g>
		<g transform="matrix(0.13 0 0 -0.13 116.79 213.28)"  >
<path style="stroke: none; stroke-width: 1; stroke-dasharray: none; stroke-linecap: butt; stroke-dashoffset: 0; stroke-linejoin: miter; stroke-miterlimit: 4; fill: rgb(166,118,1); fill-rule: nonzero; opacity: 1;" vector-effect="non-scaling-stroke"  transform=" translate(-6894.93, -5619.42)" d="M 6885 6144 C 6791 6095 6688 6000 6612 5891 C 6575 5839 6572 5832 6587 5818 C 6601 5803 6608 5809 6662 5881 C 6762 6014 6865 6090 6944 6090 C 6974 6090 6989 6083 7015 6057 C 7053 6019 7068 5975 7076 5874 L 7083 5802 L 6956 5741 C 6749 5643 6651 5561 6590 5436 C 6561 5377 6531 5262 6530 5210 C 6530 5180 6595 5112 6649 5085 C 6759 5029 6984 5167 7118 5372 C 7285 5630 7307 5908 7171 6063 C 7134 6105 7034 6157 6975 6165 C 6944 6169 6924 6165 6885 6144 z M 7034 5643 C 6994 5535 6924 5400 6877 5340 C 6827 5277 6760 5236 6681 5222 L 6627 5212 L 6633 5268 C 6643 5363 6706 5475 6796 5559 C 6866 5624 7008 5710 7046 5710 C 7056 5710 7053 5693 7034 5643 z" stroke-linecap="round" />
</g>
		<g transform="matrix(0.13 0 0 -0.13 256.52 213.33)"  >
<path style="stroke: none; stroke-width: 1; stroke-dasharray: none; stroke-linecap: butt; stroke-dashoffset: 0; stroke-linejoin: miter; stroke-miterlimit: 4; fill: rgb(166,118,1); fill-rule: nonzero; opacity: 1;" vector-effect="non-scaling-stroke"  transform=" translate(-7942.94, -5619)" d="M 7859 6146 C 7762 6080 7614 5859 7427 5500 C 7310 5276 7270 5161 7295 5120 C 7302 5108 7390 5065 7394 5072 C 7395 5073 7402 5104 7409 5140 C 7444 5321 7566 5587 7716 5810 C 7789 5919 7846 5987 7855 5978 C 7859 5975 7847 5914 7830 5844 C 7812 5774 7790 5669 7779 5611 C 7758 5493 7733 5163 7743 5138 C 7751 5116 7817 5082 7868 5074 C 7913 5067 7913 5067 7925 5154 C 7946 5305 8084 5629 8205 5810 C 8270 5908 8354 5999 8367 5987 C 8371 5983 8364 5936 8351 5882 C 8281 5581 8260 5435 8260 5240 L 8260 5119 L 8303 5100 C 8327 5089 8365 5078 8387 5074 L 8429 5068 L 8423 5121 C 8420 5151 8423 5246 8429 5334 C 8448 5598 8497 5839 8563 6005 L 8598 6091 L 8574 6107 C 8542 6128 8439 6169 8419 6170 C 8361 6171 8104 5802 7965 5518 C 7935 5457 7910 5416 7910 5427 C 7910 5490 7989 5811 8046 5978 C 8086 6096 8086 6096 8006 6134 C 7924 6172 7900 6174 7859 6146 z" stroke-linecap="round" />
</g>
		<g transform="matrix(0.13 0 0 -0.13 -284.89 213.9)"  >
<path style="stroke: none; stroke-width: 1; stroke-dasharray: none; stroke-linecap: butt; stroke-dashoffset: 0; stroke-linejoin: miter; stroke-miterlimit: 4; fill: rgb(166,118,1); fill-rule: nonzero; opacity: 1;" vector-effect="non-scaling-stroke"  transform=" translate(-3882.36, -5614.78)" d="M 3818 6145 C 3718 6129 3556 6077 3521 6050 L 3496 6032 L 3515 5990 C 3526 5966 3542 5937 3553 5924 L 3571 5901 L 3617 5930 C 3662 5959 3759 6000 3781 6000 C 3787 6000 3779 5981 3765 5958 C 3703 5859 3550 5517 3470 5301 L 3440 5219 L 3480 5176 C 3503 5151 3545 5122 3579 5106 C 3845 4987 4262 5201 4264 5459 C 4264 5523 4245 5567 4194 5621 L 4160 5656 L 4204 5688 C 4345 5789 4367 5993 4246 6085 C 4159 6151 3996 6174 3818 6145 z M 4178 6045 C 4244 6025 4270 5993 4270 5931 C 4270 5874 4245 5831 4189 5791 C 4116 5738 4050 5719 3920 5716 L 3803 5714 L 3846 5804 C 3869 5854 3904 5923 3924 5958 C 3943 5992 3957 6027 3954 6035 C 3950 6044 3958 6050 3977 6053 C 4042 6063 4130 6059 4178 6045 z M 4129 5614 C 4157 5594 4180 5542 4180 5497 C 4180 5448 4135 5366 4083 5320 C 3988 5236 3832 5184 3700 5192 C 3601 5197 3599 5202 3637 5313 C 3670 5411 3748 5599 3760 5613 C 3764 5618 3780 5614 3794 5604 C 3817 5590 3835 5588 3908 5593 C 3956 5596 4015 5606 4040 5614 C 4099 5633 4102 5633 4129 5614 z" stroke-linecap="round" />
</g>
</g>
</g>
</svg>